<svg xmlns="http://www.w3.org/2000/svg" viewBox="0 0 65.69 65.69"><defs><style>.cls-1{fill:#e27e22;}</style></defs><title>1.2cerrar ventana</title><g id="Capa_2" data-name="Capa 2"><g id="Capa_1-2" data-name="Capa 1"><path class="cls-1" d="M1.34,7.69,20.49,26.84,51,57.38l7,7A4.5,4.5,0,0,0,64.41,58L45.26,38.88,14.72,8.35l-7-7a4.56,4.56,0,0,0-6.36,0,4.59,4.59,0,0,0,0,6.37Z"/><path class="cls-1" d="M58,1.29,38.85,20.44,8.32,51l-7,7a4.56,4.56,0,0,0,0,6.37,4.57,4.57,0,0,0,6.36,0L26.81,45.21,57.35,14.67l7-7a4.55,4.55,0,0,0,0-6.36,4.57,4.57,0,0,0-6.36,0Z"/></g></g></svg>