<svg xmlns="http://www.w3.org/2000/svg" viewBox="0 0 153.38 153.38"><defs><style>.cls-1{fill:#fff;}.cls-2{fill:#edc00f;}</style></defs><title>1.2icono camara</title><g id="Capa_2" data-name="Capa 2"><g id="Capa_1-2" data-name="Capa 1"><circle class="cls-1" cx="76.69" cy="76.69" r="76.69"/><path class="cls-2" d="M93.39,82c-.32,9.51-7.75,17.61-17.54,17.55a17.54,17.54,0,0,1-.69-35.07C85.22,64,93.06,72.16,93.39,82c.11,3.21,5.11,3.23,5,0C98,69.7,88.43,59.42,75.85,59.42a22.55,22.55,0,1,0,0,45.09C88.43,104.51,98,94.23,98.39,82,98.5,78.75,93.5,78.75,93.39,82Z"/><path class="cls-2" d="M103.55,59.2c4.55,0,13.29-1.74,14.08,4.52.37,2.92,0,6.12,0,9V105c0,3.62-.29,7-4.93,7.42-2.73.27-5.63,0-8.37,0H41.76c-3.47,0-7.13.1-7.7-4.56-.37-3,0-6.36,0-9.41V66.36a23.25,23.25,0,0,1,0-2.64c.58-4.59,4.38-4.52,7.91-4.52,4.79,0,9.47.48,12.06-4.44,1.24-2.34,1.79-5.06,2.87-7.48C58.09,44.62,60,44,62.6,43.75c5.85-.48,11.94,0,17.81,0,4.68,0,10.46-1.36,12.93,3.49,2.64,5.17,3.45,11.17,10.21,12,3.19.37,3.17-4.63,0-5-2.76-.32-4-5.37-4.93-7.34-1.15-2.57-2.14-5.14-4.65-6.73-3.66-2.32-9.46-1.38-13.56-1.38-5.93,0-11.87-.12-17.81,0-5.68.11-8.78,2.69-10.8,7.92-1,2.56-1.5,6.64-4.57,7.53-2.19.64-5.35-.06-7.65,0-5.91.15-10.23,3.6-10.52,9.75-.5,10.89,0,21.92,0,32.83,0,8.1-1.76,20.16,9.78,20.67,9,.41,18.11,0,27.12,0h38.37c7.69,0,17.81.94,18.3-9.75.56-12.25,0-24.64,0-36.9,0-4.22.75-9.31-2-12.87-3.92-5.11-11.43-3.73-17.09-3.73C100.34,54.2,100.33,59.2,103.55,59.2Z"/><circle class="cls-2" cx="108.17" cy="68.33" r="4.63"/></g></g></svg>