<svg xmlns="http://www.w3.org/2000/svg" viewBox="0 0 658.29 183.31"><defs><style>.cls-1{fill:#efc20f;}.cls-2,.cls-3{fill:#fff;}.cls-3{stroke:#fff;stroke-miterlimit:10;stroke-width:2px;}.cls-4{font-size:165px;fill:#e27e22;font-family:FontoonITCTT, Fontoon ITC TT;}</style></defs><title>1.2Identidad</title><g id="Capa_2" data-name="Capa 2"><g id="Capa_1-2" data-name="Capa 1"><path class="cls-1" d="M6.45,86.22C17,94.92,32.8,87,32.88,73.36A35.34,35.34,0,0,0,31.21,62.6C29,56,21.84,41.11,9.17,44.42S-1.3,78.58,5.32,85.19A13.64,13.64,0,0,0,6.45,86.22Z"/><path class="cls-1" d="M37.85,55.37c10.53,8.7,26.35.79,26.43-12.86a35,35,0,0,0-1.67-10.76c-2.2-6.61-9.36-21.49-22-18.18S30.11,47.73,36.72,54.34C37.09,54.7,37.47,55.05,37.85,55.37Z"/><path class="cls-1" d="M95.55,57.68c-11.08,8-26.34-1-25.5-14.61a34.91,34.91,0,0,1,2.39-10.62C75.08,26,83.22,11.64,95.64,15.79s8.16,34.78,1.12,40.93C96.36,57.07,96,57.38,95.55,57.68Z"/><path class="cls-1" d="M100.52,78.93c2.57,12.62,18.87,16.2,27,6.22a33.27,33.27,0,0,0,5.16-8.88c2.3-6.16,5.86-21.32-5.4-26.4s-27.93,18.86-27,27.63A12.93,12.93,0,0,0,100.52,78.93Z"/><path class="cls-1" d="M21.57,123.48S20.39,99.66,46.36,83.26c10.47-6.61,6-9,17.08-14.87,9.37-5,20.94-1.11,24.79,4.4C91,76.68,94.29,86.57,99.8,93.73s20.39,13.77,20.39,28.65S107,147.72,95.94,147.72s-17.07-2.2-24.79-2.2-17.08,2.2-24.79,2.2S21.57,137.25,21.57,123.48Z"/><path class="cls-2" d="M61.88,146.45c-2.64.49-7.41,1.17-9.66-.61-4-3.15,1.75-8.79,4.08-10.34,2-1.31,4.25-1.72,6.23-2.88,3.35-2,4.2-6.74,4.86-10.26.57-3.06,1.77-7.62-.91-10-1.79-1.58-4.41-1.8-6.22-3.49-1.47-1.37-2.35-3.24-3.77-4.64a10.51,10.51,0,0,0-4.87-2.63c-2.59-.66-5.6.36-8-.31-2.71-.75-5.34-5.77-5.72-8.27-.46-3,1.81-3.81,3.29-5.93a16.19,16.19,0,0,0,2.57-7.69c.14-1.6-2.36-1.59-2.5,0a13.64,13.64,0,0,1-1.65,5.48c-1.2,2.06-3.55,3.05-4.28,5.42-1,3.41,2.09,8.76,4.28,11.18,4.28,4.72,11,.17,15.62,5.12,1.47,1.56,2.43,3.43,4.15,4.8,2.61,2.09,5.61,2,6.16,6,.4,2.89-1.18,9.54-2.89,11.79-1.51,2-4.3,2.25-6.37,3.41-3.45,1.92-7.71,6-8,10.26-.43,7.29,9.4,6.91,14.23,6,1.58-.3.91-2.71-.66-2.42Z"/><path class="cls-2" d="M80,78.77c-3,5.42-6.55,10.11-11.84,13.53-3.89,2.52-9.76,4.22-12.4,8.3-5,7.67,7.58,12.83,12.65,14.8,4,1.53,7.14.2,10.4-2.26a43.64,43.64,0,0,0,11.34-12.23A30.89,30.89,0,0,0,94.5,87.84,32.33,32.33,0,0,0,94,79.28c-.2-1.14-1-7.29-1.73-7.49A1.25,1.25,0,0,0,93,69.38c-4.38-1.12-2,7.4-1.72,8.73,2.61,12.38-2.14,22.68-11.36,30.84-2.79,2.47-5.78,5.37-9.76,4.43a26.92,26.92,0,0,1-4.48-2c-2.32-1-4.5-1.67-6.28-3.61-3.85-4.16-.68-7.09,3-9.27,4.44-2.63,9-4.8,12.7-8.5A44,44,0,0,0,82.15,80,1.25,1.25,0,0,0,80,78.77Z"/><path class="cls-3" d="M61.39,78.71a1.11,1.11,0,0,0,.72,1.87,2.67,2.67,0,0,0,.74,0c.46-.11,1.52-.51,1.37-1.39s-2.26-.91-2.75-.5Z"/><path class="cls-3" d="M53.32,113.65a1.11,1.11,0,0,0-.67-1.89,2.51,2.51,0,0,0-.75,0c-.46.1-1.52.48-1.39,1.36s2.24,1,2.73.56Z"/><text class="cls-4" transform="translate(155.29 144.87)">tribil<tspan class="cls-1" x="355.9" y="0">!</tspan><tspan x="407.21" y="0">n</tspan></text></g></g></svg>