<svg xmlns="http://www.w3.org/2000/svg" viewBox="0 0 627.5 627.5"><defs><style>.cls-1,.cls-3,.cls-4{fill:#edc00f;}.cls-2{fill:#fff;}.cls-3{opacity:0.4;}.cls-4{stroke:#edc00f;stroke-miterlimit:10;stroke-width:3px;}</style></defs><title>1.2imagen default</title><g id="Capa_2" data-name="Capa 2"><g id="Capa_1-2" data-name="Capa 1"><rect class="cls-1" width="627.5" height="627.5" rx="60.06"/><path class="cls-2" d="M147.77,304.32c28.57,23.61,71.52,2.15,71.73-34.91A95.63,95.63,0,0,0,215,240.2c-6-17.94-25.42-58.32-59.82-49.35s-28.41,92.72-10.47,110.67C145.69,302.51,146.72,303.44,147.77,304.32Z"/><path class="cls-2" d="M233,220.57c28.57,23.61,71.52,2.15,71.73-34.91a95.2,95.2,0,0,0-4.52-29.2c-6-18-25.42-58.33-59.82-49.36S212,199.82,229.93,217.77C230.93,218.77,232,219.7,233,220.57Z"/><path class="cls-2" d="M389.64,226.84c-30.09,21.64-71.51-2.65-69.23-39.64a95.45,95.45,0,0,1,6.47-28.84c7.17-17.5,29.28-56.49,63-45.23s22.13,94.42,3,111.12C391.84,225.18,390.75,226,389.64,226.84Z"/><path class="cls-2" d="M403.11,284.53c7,34.26,51.21,44,73.33,16.89a90.27,90.27,0,0,0,14-24.11c6.24-16.72,15.9-57.87-14.66-71.67s-75.79,51.21-73.26,75C402.65,282,402.86,283.27,403.11,284.53Z"/><path class="cls-2" d="M188.81,405.45s-3.21-64.64,67.29-109.17c28.42-17.94,16.2-24.41,46.36-40.38,25.43-13.46,56.83-3,67.3,12,7.38,10.54,16.45,37.38,31.4,56.83s55.34,37.38,55.34,77.76-35.89,68.79-65.8,68.79-46.36-6-67.3-6-46.36,6-67.3,6S188.81,442.84,188.81,405.45Z"/><path class="cls-1" d="M298.19,467.71a62.74,62.74,0,0,1-16.24.92c-3.67-.28-8.06-.92-11-3.31-4.82-3.93-2.2-10.76.63-15.1,6.26-9.58,15-14.31,25.33-18.48,9.74-3.93,12.6-13.28,15-22.88a115,115,0,0,0,2.95-17.79c.42-4.76.81-10-2.25-14-3.25-4.27-8.86-4.88-13.29-7.37-4.63-2.6-7.84-6.43-10.92-10.66-6.6-9.06-14.43-13.42-25.79-14.2a81,81,0,0,0-9.73,0c-3.11.15-5,.75-7.52-1.22-4.42-3.52-7.38-9.26-9.66-14.3-1.3-2.86-2.93-6.32-3.24-9.49-.33-3.41,1.88-5.42,4.37-7.21,6.25-4.49,12.26-9.33,18.11-14.33,7.19-6.15,14.23-12.53,20.94-19.22,3.19-3.19-1.76-8.14-4.95-4.95-6.15,6.13-12.59,12-19.16,17.68-6,5.16-12.07,10.18-18.47,14.78-3.89,2.79-7.31,6.06-7.87,11.16-.62,5.64,2.69,12.11,5.14,17s5.57,10.08,9.8,13.76c4.52,3.95,8.46,3.43,14.18,3.23,7.11-.26,15.15-.16,21.3,3.91,4.1,2.72,6.52,7.14,9.5,10.91a35.16,35.16,0,0,0,13.06,10.48c2.41,1.1,5.42,1.58,7.54,3.19,2.65,2,2.27,5.46,2.09,8.43a100.49,100.49,0,0,1-3.27,19.78c-1.32,4.93-2.77,12.39-7.38,15.34-4.06,2.6-9.19,3.53-13.48,5.75-9.44,4.88-19.91,15-22.25,25.8-4.74,21.85,24.56,21.73,38.39,19.09,4.42-.84,2.55-7.58-1.86-6.75Z"/><path class="cls-1" d="M347.3,284.05c-5.19,9.31-10.81,18.3-18.44,25.83-9.64,9.53-21.57,15.1-33.11,21.86-7.18,4.21-16.7,10.1-17,19.49-.31,8.79,7.55,17.66,14.32,22.42,3.85,2.71,8,3.26,12.3,4.94,4,1.57,7.59,4,11.61,5.46,9.15,3.42,17.84.58,25.43-5.11,18-13.52,33.77-30.9,40.94-52.58,4.19-12.7,4.74-26.16,2.62-39.31-1.05-6.52-4.14-13.56-3.72-20.25,0,.08.17-1.78.19-1.75-1-1.38,1.09.59-.29,0-.15-.06-1.56.11-1.33.18,4.31,1.34,6.16-5.41,1.86-6.75-3.32-1-6.15,1.68-7,4.68-.91,3.22-.34,6.84.19,10.07C377,280,379,286.4,379.76,293.17,382,314,375.23,334.92,361.9,351A129.69,129.69,0,0,1,349,364.16c-5.12,4.66-10.62,10.17-17,13-8.32,3.65-14.72-.82-22.14-4.19-4-1.79-8.57-2.29-12.23-4.64A33.63,33.63,0,0,1,287.28,357c-5.23-9.79,6.1-15.81,13.3-19.94,11.7-6.71,23.52-12.62,33.23-22.21,8.05-7.93,14.06-17.44,19.53-27.25,2.2-3.94-3.85-7.47-6-3.53Z"/><path class="cls-2" d="M296.91,283.93a3,3,0,0,0,1.95,5.07,6.4,6.4,0,0,0,2-.14c1.25-.3,4.11-1.38,3.7-3.77s-6.13-2.47-7.46-1.36Z"/><path class="cls-2" d="M275,378.76a3,3,0,0,0-1.84-5.12,6.62,6.62,0,0,0-2,.09c-1.26.28-4.14,1.3-3.78,3.69s6.07,2.61,7.42,1.53Z"/><rect class="cls-3" x="68.51" y="56.59" width="504.38" height="504.38" rx="60.06"/><path class="cls-4" d="M297,287.11a2.93,2.93,0,0,0,1.9,4.94,6.44,6.44,0,0,0,2-.13c1.22-.29,4-1.35,3.6-3.68s-6-2.4-7.26-1.31Z"/><path class="cls-4" d="M275.62,379.46a2.94,2.94,0,0,0-1.79-5,6.61,6.61,0,0,0-2,.09c-1.23.27-4,1.26-3.69,3.6s5.92,2.54,7.23,1.48Z"/></g></g></svg>